<svg xmlns="http://www.w3.org/2000/svg" fill="none" viewBox="0 0 233 54" height="54" width="233">
<g clip-path="url(#clip0_14016_1638)">
<path fill="white" d="M11.5314 8.91162L17.0318 41.9495L30.2341 39.7443L31.7852 49.0724L7.57505 53.1003L0.52002 10.7451L11.5314 8.91162Z"></path>
<path fill="white" d="M36.0559 27.3242C35.7486 24.1434 36.0559 21.1305 36.9637 18.2856C37.8715 15.43 39.2618 12.8818 41.1453 10.6373C43.0287 8.40358 45.3625 6.56655 48.1431 5.12981C50.9237 3.7038 54.0473 2.82102 57.5319 2.48864C60.963 2.15626 64.1974 2.43146 67.2174 3.30351C70.241 4.17556 72.8893 5.52652 75.191 7.37427C77.4819 9.21129 79.3439 11.445 80.7807 14.0755C82.2174 16.6988 83.0894 19.6008 83.3932 22.7781C83.7006 25.9482 83.3932 28.9611 82.4854 31.8167C81.5776 34.6723 80.1695 37.2205 78.2681 39.4543C76.3668 41.6987 74.0151 43.5429 71.2131 44.9689C68.4147 46.3949 65.2982 47.2849 61.86 47.6101C58.3825 47.9425 55.1409 47.6744 52.1352 46.8024C49.1402 45.9232 46.4991 44.5686 44.2296 42.7245C41.9494 40.8803 40.0945 38.6466 38.6578 36.0233C37.2318 33.3892 36.3597 30.4907 36.0523 27.3206L36.0559 27.3242ZM47.6821 26.2127C47.8393 27.9103 48.3111 29.4471 49.0902 30.8196C49.8693 32.1991 50.8593 33.3607 52.0566 34.3149C53.261 35.2692 54.6156 35.9661 56.1274 36.4093C57.6392 36.8524 59.2046 37.0025 60.8271 36.8453C62.4569 36.688 63.9687 36.252 65.3697 35.5301C66.7707 34.7974 67.9751 33.8539 68.9865 32.6923C69.998 31.5236 70.7556 30.1905 71.2667 28.6966C71.7671 27.1955 71.9351 25.5908 71.7778 23.8932C71.6098 22.1955 71.1381 20.6587 70.3589 19.2756C69.5798 17.9032 68.5791 16.7452 67.3639 15.791C66.1488 14.8367 64.7871 14.1398 63.2753 13.6966C61.7635 13.2535 60.1874 13.1034 58.5648 13.2606C56.9422 13.4179 55.4304 13.8539 54.033 14.5866C52.632 15.3085 51.4383 16.2556 50.4376 17.4136C49.444 18.5823 48.6935 19.9082 48.1931 21.4093C47.6821 22.9103 47.5177 24.5043 47.6821 26.2127Z"></path>
<path fill="white" d="M107.897 0.916504L108.443 34.3975L121.828 34.1831L121.974 43.6291L97.4284 44.0294L96.7314 1.09163L107.893 0.916504L107.897 0.916504Z"></path>
<path fill="white" d="M164.969 38.6185L149.065 37.5499L146.002 44.8194L134.126 44.0188L153.325 2.27832L165.488 3.08961L178.904 47.0352L167.028 46.2347L164.969 38.6185ZM162.589 29.9588L158.554 15.3555L152.586 29.2833L162.589 29.9588Z"></path>
<path fill="white" d="M181.871 7.37837C181.953 6.5921 182.196 5.85943 182.575 5.19825C182.954 4.52992 183.436 3.96523 184.029 3.49346C184.612 3.02885 185.28 2.68574 186.031 2.46416C186.781 2.24257 187.561 2.17824 188.347 2.27116C189.133 2.35336 189.866 2.59639 190.534 2.97524C191.192 3.35408 191.756 3.84729 192.221 4.45844C192.693 5.06244 193.047 5.7272 193.286 6.47058C193.526 7.20325 193.601 7.96451 193.518 8.7615C193.425 9.54778 193.186 10.2804 192.779 10.9416C192.378 11.5992 191.889 12.1746 191.295 12.6643C190.713 13.1468 190.044 13.5077 189.312 13.7293C188.579 13.9509 187.818 14.0152 187.032 13.9223C185.334 13.7365 184.001 13.0217 183.029 11.7815C182.064 10.5485 181.674 9.07601 181.871 7.37837Z"></path>
<path fill="white" d="M227.038 21.3848C226.02 20.1911 224.962 19.2548 223.861 18.5578C222.75 17.8716 221.638 17.4249 220.519 17.214C219.097 16.9495 217.878 17.0675 216.86 17.5786C215.841 18.0789 215.226 18.8759 215.023 19.9588C214.89 20.7058 214.998 21.3598 215.351 21.9281C215.712 22.4999 216.223 23.0289 216.881 23.5221C217.539 24.0046 218.304 24.4728 219.176 24.9052C220.04 25.3377 220.895 25.788 221.731 26.2454C225.094 28.1111 227.414 30.1983 228.7 32.4999C229.987 34.8123 230.341 37.5714 229.737 40.7772C229.329 42.9395 228.604 44.8373 227.546 46.4527C226.488 48.0753 225.141 49.3798 223.511 50.3626C221.881 51.3562 219.98 51.9995 217.814 52.314C215.659 52.6214 213.286 52.5356 210.709 52.0567C205.376 51.0596 200.727 48.5506 196.763 44.5263L203.118 36.5671C204.487 38.3255 205.913 39.7122 207.385 40.72C208.85 41.7279 210.38 42.3855 211.942 42.6714C213.736 43.0074 215.148 42.8466 216.177 42.1854C217.206 41.5349 217.814 40.6843 218.01 39.6407C218.132 39.0045 218.125 38.4291 217.985 37.9252C217.857 37.4141 217.557 36.9173 217.11 36.4277C216.656 35.9381 216.041 35.4449 215.273 34.9517C214.494 34.4656 213.547 33.9045 212.428 33.2612C211.095 32.5535 209.79 31.7994 208.536 30.9988C207.271 30.209 206.191 29.2619 205.301 28.1718C204.401 27.071 203.757 25.7808 203.354 24.3012C202.953 22.8109 202.953 21.031 203.343 18.9438C203.729 16.8459 204.429 15.0232 205.437 13.4542C206.445 11.8852 207.692 10.6093 209.165 9.62289C210.644 8.64719 212.353 7.98958 214.286 7.66077C216.22 7.32124 218.307 7.36771 220.541 7.78586C222.639 8.17185 224.769 8.87592 226.931 9.87664C229.101 10.8774 231.131 12.1354 233.003 13.6508L227.042 21.392L227.038 21.3848Z"></path>
</g>
<defs>
<clipPath id="clip0_14016_1638">
<rect transform="translate(0.52002 0.916504)" fill="white" height="52.1872" width="232.48"></rect>
</clipPath>
</defs>
</svg>
